<?xml version="1.0" encoding="utf-8"?>
<!-- Generator: Adobe Illustrator 17.1.0, SVG Export Plug-In . SVG Version: 6.00 Build 0)  -->
<!DOCTYPE svg PUBLIC "-//W3C//DTD SVG 1.1//EN" "http://www.w3.org/Graphics/SVG/1.1/DTD/svg11.dtd">
<svg version="1.1" id="Layer_1" xmlns="http://www.w3.org/2000/svg" xmlns:xlink="http://www.w3.org/1999/xlink" x="0px" y="0px"
	 viewBox="0 0 195.526 213.712" enable-background="new 0 0 195.526 213.712" xml:space="preserve">
<path d="M2.002,140.687c0,76.291,76.526,73.005,76.526,73.005V67.682C78.527,67.682,2.002,64.396,2.002,140.687z M77.725,171.174
	c0,0-33.721,1.448-33.721-32.169s33.721-32.169,33.721-32.169V171.174z"/>
<path d="M118.068,0.021V146.03c0,0,76.526,3.286,76.526-73.005S118.068,0.021,118.068,0.021z M118.87,103.512V39.174
	c0,0,33.72-1.448,33.72,32.169S118.87,103.512,118.87,103.512z"/>
<polygon points="76.346,213.712 76.346,43.497 2.002,43.497 2.002,0 119.069,0 119.069,213.712 "/>
</svg>
